<?xml version="1.0" encoding="utf-8"?>
<svg xmlns="http://www.w3.org/2000/svg" width="36.75" height="42.875" viewBox="0 0 36.75 42.875"><path d="M18.375,3.062A18.352,18.352,0,0,0,28.6-.019H8.163A18.3,18.3,0,0,0,18.375,3.062ZM9.848-15.418V-16.6H0v1.187c0,.239,0,.479.01.708H9.877C9.857-14.939,9.848-15.178,9.848-15.418ZM11.81-9.963h-11a17.38,17.38,0,0,0,.919,2.373H14.968A8.714,8.714,0,0,1,11.81-9.963Zm-1.694-3.321H.124A19.489,19.489,0,0,0,.5-11.149H11A8.365,8.365,0,0,1,10.116-13.284Zm-.268-6.632H0v1.656H9.848Zm0-16.576H0v.469H9.848Zm0-3.321H0v.239H9.848Zm0,6.632H0v.708H9.848Zm0,9.953H0v1.416H9.848Zm0-6.632H0v.947H9.848Zm0,3.311H0v1.187H9.848Zm15.906,15.4h10.5a15.789,15.789,0,0,0,.373-2.134H26.634A8.722,8.722,0,0,1,25.754-11.149ZM26.9-28.921H36.75v-.938H26.9Zm0,3.56H36.75v-1.187H26.9Zm0-7.111H36.75v-.708H26.9Zm0-7.34v.239H36.75v-.239ZM7.474-.488H29.266A18.482,18.482,0,0,0,32.348-3.33H4.3A19.957,19.957,0,0,0,7.474-.488ZM26.9-36.023H36.75v-.469H26.9Zm0,14.212H36.75v-1.416H26.9ZM3.713-4.048H32.931a18.184,18.184,0,0,0,1.7-2.6H2.2A17.942,17.942,0,0,0,3.713-4.048ZM21.782-7.6H35.123a19.241,19.241,0,0,0,.813-2.373H24.931A8.471,8.471,0,0,1,21.782-7.6Zm5.12-7.819a5.752,5.752,0,0,1-.038.708h9.867c.01-.239.019-.469.019-.708V-16.6H26.9Zm0-2.842H36.75v-1.656H26.9Z" transform="translate(0 39.812)" fill="#fff"/></svg>