<?xml version="1.0" encoding="utf-8"?>
<svg xmlns="http://www.w3.org/2000/svg" width="35.927" height="42.762" viewBox="0 0 35.927 42.762"><path d="M9.877-13.877c-.5.344-3.12,1.254-3.12-1.818v-9.953H3.627v9.819c0,7.168,7.675,4.89,9.369,3.732V-25.648H9.877ZM.383-35.714v21.141c0,9.924,7.168,12.939,17.963,17.619C29.1-1.635,36.31-4.63,36.31-14.574V-35.714C25.179-41.61,9.341-40.461.383-35.714ZM34.654-14.574c0,8.288-5.091,10.872-16.308,15.82C7.1-3.711,2.029-6.286,2.029-14.574v-12.1c9.79-8.977,22.165-9.57,32.625-8.594ZM14.595-24.852V-4.487h3.13v-6.575c2.335.7,6.862-.249,6.862-7.513C24.586-27.9,16.863-26.318,14.595-24.852Zm3.13,11.226v-9.6c.8-.4,3.675-1.215,3.675,4.718C21.4-12.009,17.916-13.55,17.724-13.626Zm7.57-8.269c.01,4.527,4.938,4.067,5,6.738.057,2.249-2.909,2.2-4.862.469v2.881c3.464,2.058,7.838.775,7.962-3.206.163-4.929-5.178-4.46-5.111-7.005.057-1.943,2.928-1.962,4.642-.211v-2.718C30.194-27.053,25.275-25.828,25.294-21.895Z" transform="translate(-0.383 39.717)" fill="#fff"/></svg>