<?xml version="1.0" encoding="utf-8"?>
<svg xmlns="http://www.w3.org/2000/svg" width="61.251" height="36.79" viewBox="0 0 61.251 36.79"><path d="M17.266-23.446v-6.631c.011-.145.021-.382.021-.528a7.779,7.779,0,0,0-1.712-4.483,8.544,8.544,0,0,0-4.682-1.682c-.179,0-.47.013-.648.029C7.367-36.759,4.434-35.615,3.935-35c-.136.26-.428,2.316.281,2.316.234,0,.324.054,1.029-.27a11.416,11.416,0,0,1,4.387-.967,3.639,3.639,0,0,1,4.288,4.2v1.495a19.22,19.22,0,0,0-4.5-.6c-3.529-.192-6.94,2.083-6.788,5.747-.217,4.5,4.005,5.465,5.563,5.379H8.32a8.514,8.514,0,0,0,5.871-2.819c1.176,2.626,1.919,2.449,1.96,2.451a1.2,1.2,0,0,0,.539-.184l1.225-.857a.877.877,0,0,0,.392-.6C18.28-20.319,17.2-21.279,17.266-23.446ZM9-20.346a2.658,2.658,0,0,1-2.867-2.917c-.1-2.549,2.545-3.2,3.995-3.087a16.445,16.445,0,0,1,3.786.466,9.586,9.586,0,0,1-.2,2.622C13.413-22.258,12.1-20.391,9-20.346ZM25.353-18.14H27.1a1.1,1.1,0,0,0,1.213-1.029l3.137-13.11,3.174,13.124a1.1,1.1,0,0,0,1.213,1.029H37.63a1.1,1.1,0,0,0,1.213-.992C44.219-36.4,43.851-35.2,43.892-35.38c.086-.9-.421-.834-.5-.821H41.5a1.119,1.119,0,0,0-1.213.992L36.76-21.559l-3.2-13.65a1.059,1.059,0,0,0-1.214-.992H30.706a1.083,1.083,0,0,0-1.225.98L26.308-21.744,22.889-35.222a1.087,1.087,0,0,0-1.2-.992H19.559a.455.455,0,0,0-.374.436.541.541,0,0,0,0,.066,3.658,3.658,0,0,0,.184.821l4.766,15.758A1.1,1.1,0,0,0,25.353-18.14Zm26.173.539c.08,0,4.8.294,6.628-3.294a5.2,5.2,0,0,0-.416-5.306c-1.385-1.607-2.551-1.781-6.041-2.831-.3-.078-2.884-.759-2.842-2.573-.142-2.3,3.017-2.424,3.676-2.39,2.658-.04,3.967.946,4.7,1.029q.467,0,.466-.637v-.968a1.157,1.157,0,0,0-.184-.674c-.875-1.1-4.106-1.5-5.318-1.495-4.256-.022-6.712,2.652-6.653,5.355.009,3.708,3.747,4.888,4.191,5.011,3.6,1.137,4.082,1.169,5.085,2.01a2.2,2.2,0,0,1-.5,3.345c-.378.209-1.921,1.149-5.428.429a13.143,13.143,0,0,1-2.757-.919c-.252-.1-.845-.245-.845.564v1.04a1.326,1.326,0,0,0,.747,1.128A12.929,12.929,0,0,0,51.525-17.6ZM55.373-7.566c1.115-.821.159-2.046-.969-1.568A71.924,71.924,0,0,1,31.283-4.392h-.039C22.294-4.392,8.726-8,.957-12.442c-.76-.43-1.311.343-.686.906C7.344-5.158,20.814.019,30.338.019h.3C38.942.018,48.671-2.617,55.373-7.566Zm2.794-3.186c.857,1.1-.956,5.624-1.764,7.658-.245.613.282.858.834.392,3.59-3.015,4.509-9.325,3.786-10.232S54-14.612,50.166-11.916c-.589.416-.479.98.171.906C52.493-11.267,57.309-11.855,58.166-10.752Z" transform="translate(0 36.771)" fill="#fff"/></svg>