<?xml version="1.0" encoding="utf-8"?>
<svg xmlns="http://www.w3.org/2000/svg" width="61.242" height="20.273" viewBox="0 0 61.242 20.273"><path d="M13.829-9.187l3.665.077a25.481,25.481,0,0,1-3.665-1.608Zm5.522-.507v.507l-1.857.077a15.679,15.679,0,0,0,9.063.689A20.489,20.489,0,0,1,19.351-9.695ZM58.484-20.72a2.767,2.767,0,0,0,2.766-2.766c0-1.531-1.235-2.345-2.766-2.345s-2.766.823-2.766,2.345A2.767,2.767,0,0,0,58.484-20.72ZM55.709-9.187H61.25V-19.763H55.709Zm-7.053,0H54.2V-27.878l-5.541,2.613ZM45.689-20.614c-1.742-1.742-4.823-1.636-4.823-1.636s-3.091-.105-4.823,1.636-1.608,3.244-1.608,5.034S34.3-12.3,36.042-10.556,40.865-8.92,40.865-8.92s3.091.105,4.823-1.636S47.3-13.791,47.3-15.58,47.421-18.882,45.689-20.614ZM41.88-13.733c0,.344-.172,1.2-1.024,1.2s-1.024-.852-1.024-1.2V-17.6a1,1,0,0,1,1.024-1.043A1,1,0,0,1,41.88-17.6ZM31.716-20.614c-1.742-1.742-4.823-1.636-4.823-1.636s-3.082-.105-4.823,1.636a5.751,5.751,0,0,0-.507.574,53.089,53.089,0,0,0-9.771-5.847v-1.981L9.637-26.854C4.431-28.969,1.12-28.6.325-26.845c0,0-2.383,3.139,5.914,10.6v7.053h5.541v-2.737c-.622-.4-1.244-.833-1.857-1.3C8.508-14.3,7.3-15.293,6.249-16.231V-19.2a46.468,46.468,0,0,0,5.111,4.814l.431.344v-2.852c0-.66.163-1.742,1.034-1.742s1.014.66,1.014,1.436v4.661A25.517,25.517,0,0,0,19.361-9.7v-8.986a3.578,3.578,0,0,0-3.885-3.579,4.233,4.233,0,0,0-3.685,2.1v-5.2a79.744,79.744,0,0,1,9.561,5.579c-.976,1.4-.89,2.689-.89,4.182,0,1.79-.134,3.283,1.608,5.024s4.823,1.636,4.823,1.636,3.091.105,4.823-1.636,1.6-3.235,1.6-5.024C33.314-17.38,33.458-18.882,31.716-20.614ZM6.24-25.266v6.058c-4.661-5.216-3.723-7.273-3.369-7.57,1.292-1.091,3.589-.766,6.163.2ZM27.917-13.733c0,.344-.172,1.2-1.024,1.2s-1.024-.852-1.024-1.2V-17.6a1,1,0,0,1,1.024-1.043A1,1,0,0,1,27.917-17.6Z" transform="translate(-0.008 28.303)" fill="#fff"/></svg>