<?xml version="1.0" encoding="utf-8"?>
<svg xmlns="http://www.w3.org/2000/svg" width="61.255" height="25.141" viewBox="0 0 61.255 25.141"><path d="M11.188-27.706a4.553,4.553,0,0,0,1.062-3.235,4.5,4.5,0,0,0-3,1.541,4.243,4.243,0,0,0-1.081,3.12A3.757,3.757,0,0,0,11.188-27.706Zm1.043,1.646c-1.665-.1-3.091.947-3.876.947-.8,0-2.01-.9-3.33-.871A4.919,4.919,0,0,0,.852-23.447c-1.8,3.091-.469,7.656,1.273,10.173.852,1.244,1.866,2.613,3.206,2.565,1.273-.048,1.771-.823,3.3-.823s1.991.823,3.33.8c1.388-.029,2.259-1.244,3.11-2.488a10.822,10.822,0,0,0,1.388-2.862,4.521,4.521,0,0,1-2.708-4.106,4.6,4.6,0,0,1,2.192-3.857A4.73,4.73,0,0,0,12.231-26.06Zm9.609-3.464v18.653h2.9v-6.374h4.01a5.919,5.919,0,0,0,6.23-6.154,5.85,5.85,0,0,0-6.135-6.125Zm2.9,2.44h3.34c2.517,0,3.953,1.34,3.953,3.694S30.6-19.676,28.07-19.676h-3.33ZM40.262-10.728a4.778,4.778,0,0,0,4.268-2.383h.057v2.239h2.68v-9.283c0-2.689-2.153-4.431-5.465-4.431-3.072,0-5.35,1.761-5.436,4.173H38.98a2.547,2.547,0,0,1,2.737-1.9c1.771,0,2.766.823,2.766,2.345v1.034l-3.618.22c-3.359.2-5.177,1.579-5.177,3.972C35.7-12.336,37.573-10.728,40.262-10.728Zm.785-2.211c-1.541,0-2.527-.746-2.527-1.876,0-1.177.947-1.857,2.756-1.962l3.216-.2v1.053C44.492-14.183,43.009-12.939,41.047-12.939ZM50.857-5.8c2.823,0,4.153-1.082,5.312-4.345L61.25-24.4H58.3L54.9-13.389h-.057L51.431-24.4H48.407l4.9,13.58L53.039-10A2.3,2.3,0,0,1,50.6-8.058c-.23,0-.67-.029-.852-.048v2.239A10.045,10.045,0,0,0,50.857-5.8Z" transform="translate(0.005 30.941)" fill="#fff"/></svg>