<svg xmlns="http://www.w3.org/2000/svg" width="57.932" height="26.138" viewBox="0 0 57.932 26.138"><g transform="translate(-866.801 -539.144)"><path d="M866.8,540.031c7.74-2.139,12.491.011,15.627,7.005,2.644,5.9,6.466,11.262,9.81,16.935-8.351,2.426-10.112,1.8-14.1-4.877C874.419,552.877,870.73,546.643,866.8,540.031Z" transform="translate(0 0.012)" fill="#fff"></path><path d="M907.521,564.4c-7.708,2.07-12.36.083-15.457-6.753-2.737-6.04-6.67-11.538-10.137-17.38,9.806-2.059,10.127-1.915,14.8,5.991C900.225,552.159,903.746,558.052,907.521,564.4Z" transform="translate(1.825 0)" fill="#fff"></path><path d="M908.416,560.256c-2.665-4.509-5.034-8.073-6.947-11.867-2.381-4.725-.072-8.509,5.18-8.965.738-.064,1.485-.023,2.228-.023,3.52,0,7.04,0,11.787,0Z" transform="translate(4.07 0.029)" fill="#fff"></path></g></svg>