<svg xmlns="http://www.w3.org/2000/svg" width="49.324" height="22.254" viewBox="0 0 49.324 22.254"><g transform="translate(-866.801 -539.144)"><path d="M866.8,539.914c6.59-1.821,10.635.01,13.305,5.964,2.251,5.02,5.505,9.589,8.353,14.419-7.11,2.066-8.609,1.533-12.008-4.152C873.287,550.851,870.146,545.543,866.8,539.914Z" transform="translate(0 -0.004)"></path><path d="M903.718,560.644c-6.563,1.762-10.523.071-13.16-5.75-2.33-5.143-5.679-9.824-8.631-14.8,8.349-1.753,8.622-1.631,12.6,5.1C897.506,550.225,900.5,555.242,903.718,560.644Z" transform="translate(-0.694)"></path><path d="M907.244,557.155c-2.269-3.839-4.286-6.874-5.915-10.1-2.027-4.023-.061-7.245,4.41-7.633.629-.054,1.264-.02,1.9-.02,3,0,5.994,0,10.036,0Z" transform="translate(-1.547 -0.011)"></path></g></svg>